<svg preserveAspectRatio="xMidYMid meet" viewBox="156.16 156.16 967.6800000000001 967.6800000000001" xmlns="http://www.w3.org/2000/svg" version="1.0" style="max-height: 500px" width="967.6800000000001" height="967.6800000000001">
<g stroke="none" fill="#000000" transform="translate(0.000000,1280.000000) scale(0.100000,-0.100000)">
<path d="M6145 11080 c-986 -57 -1904 -409 -2670 -1023 -921 -738 -1535 -1805&#xA;-1705 -2960 -61 -415 -66 -883 -14 -1282 134 -1035 601 -1983 1339 -2720 740&#xA;-739 1687 -1203 2725 -1334 380 -49 780 -49 1160 0 1039 132 1987 596 2725&#xA;1334 739 740 1205 1686 1339 2720 29 219 39 434 33 694 -6 264 -14 363 -47&#xA;586 -247 1672 -1397 3094 -2985 3693 -376 142 -788 237 -1190 276 -193 19&#xA;-531 27 -710 16z m765 -720 c872 -117 1646 -490 2264 -1090 688 -669 1099&#xA;-1525 1197 -2495 18 -177 15 -598 -5 -783 -137 -1255 -833 -2353 -1902 -3000&#xA;-778 -470 -1697 -659 -2609 -536 -446 60 -899 204 -1301 414 -1112 580 -1890&#xA;1657 -2088 2890 -39 243 -49 376 -49 645 0 269 10 402 49 645 200 1254 1008&#xA;2353 2149 2922 452 226 934 361 1452 408 174 15 668 4 843 -20z"/>
<path d="M4589 8707 c-25 -7 -58 -23 -75 -34 -53 -38 -381 -377 -400 -413 -13&#xA;-25 -19 -57 -19 -110 0 -64 4 -82 27 -120 15 -25 368 -386 812 -830 432 -432&#xA;786 -789 786 -795 0 -6 -354 -363 -786 -795 -444 -444 -797 -805 -812 -830&#xA;-23 -38 -27 -56 -27 -120 0 -63 4 -82 27 -120 36 -61 372 -392 425 -419 58&#xA;-29 158 -29 216 0 28 14 300 279 840 817 l797 797 798 -797 c539 -538 811&#xA;-803 839 -817 58 -29 158 -29 216 0 53 27 389 358 425 419 23 38 27 57 27 120&#xA;0 64 -4 82 -27 120 -15 25 -368 386 -812 830 -432 432 -786 789 -786 795 0 6&#xA;354 363 786 795 444 444 797 805 812 830 23 38 27 56 27 120 0 63 -4 82 -27&#xA;120 -14 25 -111 129 -215 231 -204 202 -221 213 -323 213 -39 -1 -70 -8 -105&#xA;-27 -38 -19 -242 -218 -835 -811 -432 -432 -792 -786 -800 -786 -8 0 -368 354&#xA;-800 786 -549 550 -799 792 -830 809 -59 30 -123 38 -181 22z"/>
</g>
</svg>